<svg width="153" height="35" xmlns="http://www.w3.org/2000/svg">
 <g>
  <title>background</title>
  <rect fill="none" id="canvas_background" height="37" width="155" y="-1" x="-1"/>
  <g display="none" id="canvasGrid">
   <rect fill="url(#gridpattern)" stroke-width="0" y="0" x="0" height="100%" width="100%" id="svg_2"/>
  </g>
 </g>

 <g>
  <title>APK Support</title>
  <g id="svg_3" stroke="null">
   <path id="svg_1" d="m32.05148,12.30611l-6.64109,1.90823c-0.6085,-1.67976 -1.52467,-3.13579 -2.63342,-4.29469l3.51198,-6.43967c0.30881,-0.56821 0.11851,-1.29267 -0.43301,-1.61583c-0.54583,-0.3208 -1.24207,-0.12075 -1.54974,0.44627l-3.33194,6.11058c-0.68826,-0.45338 -1.41299,-0.81561 -2.16507,-1.06065c-0.47404,-1.70106 -1.88248,-2.85405 -3.48464,-3.0328c-0.00114,-0.00473 -0.00228,-0.00947 -0.00342,-0.0142c-0.06951,-0.28647 -0.10597,-0.54453 -0.11167,-0.76945c-0.0057,-0.22373 0.01368,-0.4155 0.05242,-0.56702c0.04216,-0.15389 0.09002,-0.27818 0.14244,-0.37525c0.16637,-0.30778 0.38743,-0.50902 0.6575,-0.60254c0.02621,0.33264 0.16181,0.57058 0.40111,0.71145c0.17662,0.10417 0.38287,0.13613 0.62217,0.1018c0.24044,-0.0367 0.42846,-0.17993 0.5652,-0.42971c0.11965,-0.22018 0.14472,-0.46048 0.07293,-0.71854c-0.07293,-0.25924 -0.23132,-0.4593 -0.47176,-0.60017c-0.17548,-0.10298 -0.35781,-0.15507 -0.54924,-0.1527c-0.1903,0.00118 -0.37263,0.04025 -0.54811,0.11482c-0.17435,0.07458 -0.3373,0.1894 -0.48885,0.34211c-0.15042,0.1527 -0.27462,0.3208 -0.37604,0.50428c-0.15042,0.277 -0.24614,0.58715 -0.28488,0.92689c-0.0376,0.33855 -0.04216,0.66882 -0.01026,0.99436c0.01938,0.1894 0.06951,0.35631 0.10712,0.53151c-0.42732,-0.02486 -0.86375,0.00237 -1.29905,0.12784c-0.54924,0.15744 -1.04037,0.42616 -1.45858,0.773c-0.05925,-0.20361 -0.11167,-0.40721 -0.20511,-0.61319c-0.13218,-0.29476 -0.29969,-0.57531 -0.49911,-0.84757c-0.20283,-0.27108 -0.43757,-0.48534 -0.70421,-0.64279c-0.17549,-0.1018 -0.36579,-0.17874 -0.5709,-0.22965c-0.20511,-0.0509 -0.40111,-0.06155 -0.58799,-0.03196s-0.36236,0.0947 -0.52759,0.19414c-0.16637,0.09944 -0.29628,0.24267 -0.39656,0.4226c-0.1356,0.24978 -0.17092,0.50665 -0.10711,0.7659c0.06609,0.26161 0.20625,0.45456 0.4182,0.58004c0.2393,0.14087 0.4729,0.16336 0.69625,0.06629c0.22334,-0.09707 0.38401,-0.23557 0.48429,-0.42024c0.1356,-0.24859 0.13446,-0.5244 -0.00798,-0.82271c0.27804,-0.06511 0.56634,-0.00947 0.86261,0.16691c0.0923,0.05327 0.19486,0.13613 0.30767,0.24622c0.11054,0.10891 0.21993,0.2628 0.3259,0.4593c0.10712,0.19651 0.20398,0.43563 0.28602,0.71973c0.01482,0.05208 0.02621,0.11601 0.03988,0.17283c-1.03809,0.98015 -1.54632,2.47169 -1.25118,3.97389c-0.6632,0.69131 -1.22156,1.50338 -1.66027,2.40895l-5.87989,-3.46368c-0.54697,-0.3208 -1.24435,-0.12075 -1.5543,0.44627c-0.30881,0.57058 -0.11623,1.29504 0.43073,1.61821l6.2001,3.64835c-0.37718,1.58624 -0.44099,3.32282 -0.13332,5.08663l-6.64109,1.90941c-0.6085,0.17401 -0.96403,0.82745 -0.79538,1.45721c0.16751,0.62739 0.79424,0.99791 1.40274,0.82153l6.6992,-1.92598c0.57318,1.25123 1.55316,2.69897 2.70179,4.07569l-3.63961,6.67523c-0.30995,0.56939 -0.11851,1.29267 0.43074,1.61347c0.27234,0.16218 0.58343,0.19177 0.86375,0.11128c0.2826,-0.0805 0.53443,-0.27109 0.68826,-0.55756l3.2989,-6.04784c3.07668,3.07068 6.47699,4.88065 6.58411,1.24651c1.82094,3.03043 3.93246,-0.40012 5.13009,-4.70664l5.92889,3.48854c0.27348,0.16336 0.58571,0.19177 0.86831,0.11128c0.28032,-0.07931 0.53215,-0.27108 0.68713,-0.55755c0.30994,-0.56703 0.1185,-1.29149 -0.4296,-1.61229l-6.49637,-3.82236c0.3316,-1.78157 0.48088,-3.53117 0.36351,-4.89841l6.70717,-1.92598c0.60395,-0.17402 0.96517,-0.82509 0.7931,-1.45485c-0.16864,-0.62976 -0.79766,-0.99909 -1.40388,-0.82508l0,0l0.00001,0z" stroke-width="0.5" fill="#78c257" stroke="#78c257"/>
   <path id="svg_6" d="m12.35667,6.80743l0,0c0,-0.36161 0.28734,-0.65476 0.64179,-0.65476l0,0c0.17022,0 0.33346,0.06898 0.45382,0.19177c0.12036,0.1228 0.18797,0.28934 0.18797,0.46299l0,0c0,0.36162 -0.28734,0.65477 -0.64179,0.65477l0,0c-0.35445,0 -0.64179,-0.29315 -0.64179,-0.65477zm0.3209,0l0,0c0,0.18081 0.14367,0.32739 0.32089,0.32739c0.17723,0 0.3209,-0.14658 0.3209,-0.32739c0,-0.1808 -0.14367,-0.32738 -0.3209,-0.32738l0,0c-0.17722,0 -0.32089,0.14658 -0.32089,0.32738z" fill-opacity="null" stroke-width="0.5" fill="none" stroke="#ffffff"/>
   <path id="svg_7" d="m15.16642,6.1219l0,0c0,-0.34354 0.28734,-0.62204 0.64179,-0.62204l0,0c0.17022,0 0.33346,0.06554 0.45382,0.18219c0.12036,0.11666 0.18797,0.27487 0.18797,0.43985l0,0c0,0.34354 -0.28734,0.62203 -0.64179,0.62203l0,0c-0.35445,0 -0.64179,-0.27849 -0.64179,-0.62203l0,0zm0.3209,0l0,0c0,0.17177 0.14367,0.31101 0.32089,0.31101c0.17723,0 0.3209,-0.13924 0.3209,-0.31101c0,-0.17177 -0.14367,-0.31102 -0.3209,-0.31102l0,0c-0.17722,0 -0.32089,0.13925 -0.32089,0.31102z" stroke-width="0.5" fill="none" stroke="#ffffff"/>
  </g>
  <text fill="#757575" stroke-width="0" x="36.333405" y="24.84581" id="svg_5" font-size="20" font-family="Helvetica, Arial, sans-serif" text-anchor="start" xml:space="preserve">APK.Support</text>
 </g>
</svg>